<mxfile host="Electron" agent="Mozilla/5.0 (Windows NT 10.0; Win64; x64) AppleWebKit/537.36 (KHTML, like Gecko) draw.io/27.0.9 Chrome/134.0.6998.205 Electron/35.4.0 Safari/537.36" version="27.0.9">
  <diagram name="Page-1" id="WR6Yl6iH8syOmBSwLUzc">
    <mxGraphModel dx="856" dy="521" grid="1" gridSize="10" guides="1" tooltips="1" connect="1" arrows="1" fold="1" page="1" pageScale="1" pageWidth="850" pageHeight="1100" math="0" shadow="0">
      <root>
        <mxCell id="0" />
        <mxCell id="1" parent="0" />
        <mxCell id="lBh6uZdyUOQ1M6r2K1As-1" value="" style="rounded=0;whiteSpace=wrap;html=1;fillColor=none;dashed=1;strokeColor=light-dark(#828282, #ededed);" vertex="1" parent="1">
          <mxGeometry x="30" y="120" width="140" height="370" as="geometry" />
        </mxCell>
        <mxCell id="lBh6uZdyUOQ1M6r2K1As-2" value="&lt;font style=&quot;font-size: 18px;&quot;&gt;Sources&lt;/font&gt;" style="rounded=0;whiteSpace=wrap;html=1;fontSize=20;strokeColor=none;" vertex="1" parent="1">
          <mxGeometry x="40" y="100" width="120" height="30" as="geometry" />
        </mxCell>
        <mxCell id="lBh6uZdyUOQ1M6r2K1As-3" value="" style="image;aspect=fixed;html=1;points=[];align=center;fontSize=12;image=img/lib/azure2/general/Folder_Blank.svg;" vertex="1" parent="1">
          <mxGeometry x="70" y="215" width="49.29" height="40" as="geometry" />
        </mxCell>
        <mxCell id="lBh6uZdyUOQ1M6r2K1As-4" value="" style="image;aspect=fixed;html=1;points=[];align=center;fontSize=12;image=img/lib/azure2/general/Folder_Blank.svg;" vertex="1" parent="1">
          <mxGeometry x="65.72" y="375" width="49.29" height="40" as="geometry" />
        </mxCell>
        <mxCell id="lBh6uZdyUOQ1M6r2K1As-5" value="CRM&lt;div&gt;&lt;br&gt;&lt;/div&gt;" style="text;html=1;align=center;verticalAlign=middle;whiteSpace=wrap;rounded=0;fontSize=10;fontStyle=1" vertex="1" parent="1">
          <mxGeometry x="79.64000000000004" y="260" width="30" height="20" as="geometry" />
        </mxCell>
        <mxCell id="lBh6uZdyUOQ1M6r2K1As-6" value="ERP" style="text;html=1;align=center;verticalAlign=middle;whiteSpace=wrap;rounded=0;fontSize=10;fontStyle=1" vertex="1" parent="1">
          <mxGeometry x="75.35999999999999" y="415" width="30" height="20" as="geometry" />
        </mxCell>
        <mxCell id="lBh6uZdyUOQ1M6r2K1As-7" value="" style="rounded=1;whiteSpace=wrap;html=1;" vertex="1" parent="1">
          <mxGeometry x="220" y="140" width="170" height="350" as="geometry" />
        </mxCell>
        <mxCell id="lBh6uZdyUOQ1M6r2K1As-8" value="&lt;b&gt;&lt;font style=&quot;font-size: 14px;&quot;&gt;BRONZE LAYER&lt;/font&gt;&lt;/b&gt;" style="rounded=1;whiteSpace=wrap;html=1;fillColor=#ffe6cc;strokeColor=#d79b00;" vertex="1" parent="1">
          <mxGeometry x="220" y="100" width="170" height="30" as="geometry" />
        </mxCell>
        <mxCell id="lBh6uZdyUOQ1M6r2K1As-10" value="&lt;font style=&quot;font-size: 14px;&quot;&gt;crm_sales_details&lt;/font&gt;" style="rounded=1;whiteSpace=wrap;html=1;fillColor=#ffe6cc;strokeColor=#d79b00;" vertex="1" parent="1">
          <mxGeometry x="235" y="180" width="140" height="30" as="geometry" />
        </mxCell>
        <mxCell id="lBh6uZdyUOQ1M6r2K1As-15" value="&lt;font style=&quot;font-size: 14px;&quot;&gt;crm_cust_info&lt;/font&gt;" style="rounded=1;whiteSpace=wrap;html=1;fillColor=#ffe6cc;strokeColor=#d79b00;" vertex="1" parent="1">
          <mxGeometry x="235" y="220" width="140" height="30" as="geometry" />
        </mxCell>
        <mxCell id="lBh6uZdyUOQ1M6r2K1As-16" value="&lt;font style=&quot;font-size: 14px;&quot;&gt;crm_prd_info&lt;/font&gt;" style="rounded=1;whiteSpace=wrap;html=1;fillColor=#ffe6cc;strokeColor=#d79b00;" vertex="1" parent="1">
          <mxGeometry x="235" y="260" width="140" height="30" as="geometry" />
        </mxCell>
        <mxCell id="lBh6uZdyUOQ1M6r2K1As-17" value="&lt;font style=&quot;font-size: 14px;&quot;&gt;erp_cust_az12&lt;/font&gt;" style="rounded=1;whiteSpace=wrap;html=1;fillColor=#ffe6cc;strokeColor=#d79b00;" vertex="1" parent="1">
          <mxGeometry x="235" y="340" width="140" height="30" as="geometry" />
        </mxCell>
        <mxCell id="lBh6uZdyUOQ1M6r2K1As-18" value="&lt;font style=&quot;font-size: 14px;&quot;&gt;erp_loc_a101&lt;/font&gt;" style="rounded=1;whiteSpace=wrap;html=1;fillColor=#ffe6cc;strokeColor=#d79b00;" vertex="1" parent="1">
          <mxGeometry x="235" y="380" width="140" height="30" as="geometry" />
        </mxCell>
        <mxCell id="lBh6uZdyUOQ1M6r2K1As-19" value="&lt;font style=&quot;font-size: 14px;&quot;&gt;erp_px_cat_g1v2&lt;/font&gt;" style="rounded=1;whiteSpace=wrap;html=1;fillColor=#ffe6cc;strokeColor=#d79b00;" vertex="1" parent="1">
          <mxGeometry x="235" y="420" width="140" height="30" as="geometry" />
        </mxCell>
        <mxCell id="lBh6uZdyUOQ1M6r2K1As-20" value="" style="rounded=1;whiteSpace=wrap;html=1;" vertex="1" parent="1">
          <mxGeometry x="440" y="140" width="170" height="350" as="geometry" />
        </mxCell>
        <mxCell id="lBh6uZdyUOQ1M6r2K1As-21" value="&lt;span style=&quot;font-size: 14px;&quot;&gt;&lt;b&gt;SILVER LAYER&lt;/b&gt;&lt;/span&gt;" style="rounded=1;whiteSpace=wrap;html=1;fillColor=#f5f5f5;strokeColor=#666666;fontColor=#333333;" vertex="1" parent="1">
          <mxGeometry x="440" y="100" width="170" height="30" as="geometry" />
        </mxCell>
        <mxCell id="lBh6uZdyUOQ1M6r2K1As-22" value="&lt;font style=&quot;font-size: 14px;&quot;&gt;crm_sales_details&lt;/font&gt;" style="rounded=1;whiteSpace=wrap;html=1;fillColor=#f5f5f5;strokeColor=#666666;fontColor=#333333;" vertex="1" parent="1">
          <mxGeometry x="455" y="180" width="140" height="30" as="geometry" />
        </mxCell>
        <mxCell id="lBh6uZdyUOQ1M6r2K1As-23" value="&lt;font style=&quot;font-size: 14px;&quot;&gt;crm_cust_info&lt;/font&gt;" style="rounded=1;whiteSpace=wrap;html=1;fillColor=#f5f5f5;strokeColor=#666666;fontColor=#333333;" vertex="1" parent="1">
          <mxGeometry x="455" y="220" width="140" height="30" as="geometry" />
        </mxCell>
        <mxCell id="lBh6uZdyUOQ1M6r2K1As-24" value="&lt;font style=&quot;font-size: 14px;&quot;&gt;crm_prd_info&lt;/font&gt;" style="rounded=1;whiteSpace=wrap;html=1;fillColor=#f5f5f5;strokeColor=#666666;fontColor=#333333;" vertex="1" parent="1">
          <mxGeometry x="455" y="260" width="140" height="30" as="geometry" />
        </mxCell>
        <mxCell id="lBh6uZdyUOQ1M6r2K1As-25" value="&lt;font style=&quot;font-size: 14px;&quot;&gt;erp_cust_az12&lt;/font&gt;" style="rounded=1;whiteSpace=wrap;html=1;fillColor=#f5f5f5;strokeColor=#666666;fontColor=#333333;" vertex="1" parent="1">
          <mxGeometry x="455" y="340" width="140" height="30" as="geometry" />
        </mxCell>
        <mxCell id="lBh6uZdyUOQ1M6r2K1As-26" value="&lt;font style=&quot;font-size: 14px;&quot;&gt;erp_loc_a101&lt;/font&gt;" style="rounded=1;whiteSpace=wrap;html=1;fillColor=#f5f5f5;strokeColor=#666666;fontColor=#333333;" vertex="1" parent="1">
          <mxGeometry x="455" y="380" width="140" height="30" as="geometry" />
        </mxCell>
        <mxCell id="lBh6uZdyUOQ1M6r2K1As-27" value="&lt;font style=&quot;font-size: 14px;&quot;&gt;erp_px_cat_g1v2&lt;/font&gt;" style="rounded=1;whiteSpace=wrap;html=1;fillColor=#f5f5f5;strokeColor=#666666;fontColor=#333333;" vertex="1" parent="1">
          <mxGeometry x="455" y="420" width="140" height="30" as="geometry" />
        </mxCell>
        <mxCell id="lBh6uZdyUOQ1M6r2K1As-28" value="" style="rounded=1;whiteSpace=wrap;html=1;" vertex="1" parent="1">
          <mxGeometry x="650" y="140" width="170" height="350" as="geometry" />
        </mxCell>
        <mxCell id="lBh6uZdyUOQ1M6r2K1As-29" value="&lt;b&gt;&lt;font style=&quot;font-size: 14px;&quot;&gt;GOLD LAYER&lt;/font&gt;&lt;/b&gt;" style="rounded=1;whiteSpace=wrap;html=1;fillColor=#fff2cc;strokeColor=#d6b656;" vertex="1" parent="1">
          <mxGeometry x="650" y="100" width="170" height="30" as="geometry" />
        </mxCell>
        <mxCell id="lBh6uZdyUOQ1M6r2K1As-30" value="&lt;font style=&quot;font-size: 14px;&quot;&gt;fact_sales&lt;/font&gt;" style="rounded=1;whiteSpace=wrap;html=1;fillColor=#fff2cc;strokeColor=#d6b656;" vertex="1" parent="1">
          <mxGeometry x="665" y="180" width="140" height="30" as="geometry" />
        </mxCell>
        <mxCell id="lBh6uZdyUOQ1M6r2K1As-31" value="&lt;font style=&quot;font-size: 14px;&quot;&gt;dim_customers&lt;/font&gt;" style="rounded=1;whiteSpace=wrap;html=1;fillColor=#fff2cc;strokeColor=#d6b656;" vertex="1" parent="1">
          <mxGeometry x="665" y="280" width="140" height="30" as="geometry" />
        </mxCell>
        <mxCell id="lBh6uZdyUOQ1M6r2K1As-32" value="&lt;font style=&quot;font-size: 14px;&quot;&gt;dim_products&lt;/font&gt;" style="rounded=1;whiteSpace=wrap;html=1;fillColor=#fff2cc;strokeColor=#d6b656;" vertex="1" parent="1">
          <mxGeometry x="665" y="370" width="140" height="30" as="geometry" />
        </mxCell>
        <mxCell id="lBh6uZdyUOQ1M6r2K1As-39" value="" style="endArrow=classic;html=1;rounded=0;exitX=0.986;exitY=0.508;exitDx=0;exitDy=0;exitPerimeter=0;" edge="1" parent="1" source="lBh6uZdyUOQ1M6r2K1As-4">
          <mxGeometry width="50" height="50" relative="1" as="geometry">
            <mxPoint x="120.68" y="395" as="sourcePoint" />
            <mxPoint x="235" y="394.5" as="targetPoint" />
          </mxGeometry>
        </mxCell>
        <mxCell id="lBh6uZdyUOQ1M6r2K1As-40" value="" style="endArrow=classic;html=1;rounded=0;exitX=1;exitY=0.5;exitDx=0;exitDy=0;" edge="1" parent="1" source="lBh6uZdyUOQ1M6r2K1As-10">
          <mxGeometry width="50" height="50" relative="1" as="geometry">
            <mxPoint x="380" y="195" as="sourcePoint" />
            <mxPoint x="455" y="194.83" as="targetPoint" />
          </mxGeometry>
        </mxCell>
        <mxCell id="lBh6uZdyUOQ1M6r2K1As-41" value="" style="endArrow=classic;html=1;rounded=0;exitX=1;exitY=0.5;exitDx=0;exitDy=0;" edge="1" parent="1">
          <mxGeometry width="50" height="50" relative="1" as="geometry">
            <mxPoint x="375" y="234.82999999999998" as="sourcePoint" />
            <mxPoint x="455" y="234.66" as="targetPoint" />
          </mxGeometry>
        </mxCell>
        <mxCell id="lBh6uZdyUOQ1M6r2K1As-42" value="" style="endArrow=classic;html=1;rounded=0;exitX=1;exitY=0.5;exitDx=0;exitDy=0;" edge="1" parent="1">
          <mxGeometry width="50" height="50" relative="1" as="geometry">
            <mxPoint x="375" y="274.83" as="sourcePoint" />
            <mxPoint x="455" y="274.66" as="targetPoint" />
          </mxGeometry>
        </mxCell>
        <mxCell id="lBh6uZdyUOQ1M6r2K1As-43" value="" style="endArrow=classic;html=1;rounded=0;exitX=1;exitY=0.5;exitDx=0;exitDy=0;" edge="1" parent="1">
          <mxGeometry width="50" height="50" relative="1" as="geometry">
            <mxPoint x="375" y="354.83" as="sourcePoint" />
            <mxPoint x="455" y="354.66" as="targetPoint" />
          </mxGeometry>
        </mxCell>
        <mxCell id="lBh6uZdyUOQ1M6r2K1As-44" value="" style="endArrow=classic;html=1;rounded=0;exitX=1;exitY=0.5;exitDx=0;exitDy=0;" edge="1" parent="1">
          <mxGeometry width="50" height="50" relative="1" as="geometry">
            <mxPoint x="375" y="394.83" as="sourcePoint" />
            <mxPoint x="455" y="394.66" as="targetPoint" />
          </mxGeometry>
        </mxCell>
        <mxCell id="lBh6uZdyUOQ1M6r2K1As-45" value="" style="endArrow=classic;html=1;rounded=0;exitX=1;exitY=0.5;exitDx=0;exitDy=0;" edge="1" parent="1">
          <mxGeometry width="50" height="50" relative="1" as="geometry">
            <mxPoint x="375" y="434.47999999999996" as="sourcePoint" />
            <mxPoint x="455" y="434.31" as="targetPoint" />
          </mxGeometry>
        </mxCell>
        <mxCell id="lBh6uZdyUOQ1M6r2K1As-51" value="" style="endArrow=classic;html=1;rounded=0;exitX=1;exitY=0.5;exitDx=0;exitDy=0;entryX=0;entryY=0.5;entryDx=0;entryDy=0;" edge="1" parent="1" target="lBh6uZdyUOQ1M6r2K1As-30">
          <mxGeometry width="50" height="50" relative="1" as="geometry">
            <mxPoint x="595" y="194.96999999999997" as="sourcePoint" />
            <mxPoint x="660" y="195" as="targetPoint" />
          </mxGeometry>
        </mxCell>
        <mxCell id="lBh6uZdyUOQ1M6r2K1As-52" value="" style="endArrow=classic;html=1;rounded=0;exitX=1;exitY=0.5;exitDx=0;exitDy=0;entryX=0;entryY=0.5;entryDx=0;entryDy=0;" edge="1" parent="1" target="lBh6uZdyUOQ1M6r2K1As-31">
          <mxGeometry width="50" height="50" relative="1" as="geometry">
            <mxPoint x="595" y="229.99999999999997" as="sourcePoint" />
            <mxPoint x="665" y="230.03" as="targetPoint" />
          </mxGeometry>
        </mxCell>
        <mxCell id="lBh6uZdyUOQ1M6r2K1As-53" value="" style="endArrow=classic;html=1;rounded=0;exitX=1;exitY=0.5;exitDx=0;exitDy=0;entryX=0;entryY=0.5;entryDx=0;entryDy=0;" edge="1" parent="1" target="lBh6uZdyUOQ1M6r2K1As-32">
          <mxGeometry width="50" height="50" relative="1" as="geometry">
            <mxPoint x="595" y="272.5" as="sourcePoint" />
            <mxPoint x="665" y="337.5" as="targetPoint" />
          </mxGeometry>
        </mxCell>
        <mxCell id="lBh6uZdyUOQ1M6r2K1As-54" value="" style="endArrow=classic;html=1;rounded=0;exitX=1;exitY=0.5;exitDx=0;exitDy=0;entryX=0;entryY=0.5;entryDx=0;entryDy=0;" edge="1" parent="1" target="lBh6uZdyUOQ1M6r2K1As-31">
          <mxGeometry width="50" height="50" relative="1" as="geometry">
            <mxPoint x="595" y="354.88" as="sourcePoint" />
            <mxPoint x="660" y="290" as="targetPoint" />
          </mxGeometry>
        </mxCell>
        <mxCell id="lBh6uZdyUOQ1M6r2K1As-55" value="" style="endArrow=classic;html=1;rounded=0;exitX=1;exitY=0.5;exitDx=0;exitDy=0;entryX=-0.001;entryY=0.866;entryDx=0;entryDy=0;entryPerimeter=0;" edge="1" parent="1" target="lBh6uZdyUOQ1M6r2K1As-31">
          <mxGeometry width="50" height="50" relative="1" as="geometry">
            <mxPoint x="595" y="398.53" as="sourcePoint" />
            <mxPoint x="660" y="300" as="targetPoint" />
          </mxGeometry>
        </mxCell>
        <mxCell id="lBh6uZdyUOQ1M6r2K1As-56" value="" style="endArrow=classic;html=1;rounded=0;exitX=1.006;exitY=0.552;exitDx=0;exitDy=0;entryX=0;entryY=0.5;entryDx=0;entryDy=0;exitPerimeter=0;" edge="1" parent="1" source="lBh6uZdyUOQ1M6r2K1As-27" target="lBh6uZdyUOQ1M6r2K1As-32">
          <mxGeometry width="50" height="50" relative="1" as="geometry">
            <mxPoint x="595" y="442.54999999999995" as="sourcePoint" />
            <mxPoint x="665" y="350.02" as="targetPoint" />
          </mxGeometry>
        </mxCell>
        <mxCell id="lBh6uZdyUOQ1M6r2K1As-61" value="" style="endArrow=classic;html=1;rounded=0;exitX=0.986;exitY=0.508;exitDx=0;exitDy=0;exitPerimeter=0;entryX=0;entryY=0.5;entryDx=0;entryDy=0;" edge="1" parent="1" target="lBh6uZdyUOQ1M6r2K1As-15">
          <mxGeometry width="50" height="50" relative="1" as="geometry">
            <mxPoint x="119.29" y="235.25" as="sourcePoint" />
            <mxPoint x="240.29" y="234.75" as="targetPoint" />
          </mxGeometry>
        </mxCell>
        <mxCell id="lBh6uZdyUOQ1M6r2K1As-62" value="" style="endArrow=classic;startArrow=classic;html=1;rounded=0;exitX=0.005;exitY=0.657;exitDx=0;exitDy=0;exitPerimeter=0;" edge="1" parent="1">
          <mxGeometry width="50" height="50" relative="1" as="geometry">
            <mxPoint x="235.00000000000006" y="434.71000000000004" as="sourcePoint" />
            <mxPoint x="234.3" y="355" as="targetPoint" />
            <Array as="points">
              <mxPoint x="184.3" y="435" />
              <mxPoint x="184.3" y="355" />
            </Array>
          </mxGeometry>
        </mxCell>
        <mxCell id="lBh6uZdyUOQ1M6r2K1As-63" value="" style="endArrow=classic;startArrow=classic;html=1;rounded=0;exitX=0.005;exitY=0.657;exitDx=0;exitDy=0;exitPerimeter=0;" edge="1" parent="1">
          <mxGeometry width="50" height="50" relative="1" as="geometry">
            <mxPoint x="235.00000000000006" y="274.71000000000004" as="sourcePoint" />
            <mxPoint x="234.3" y="195" as="targetPoint" />
            <Array as="points">
              <mxPoint x="184.3" y="275" />
              <mxPoint x="184.3" y="195" />
            </Array>
          </mxGeometry>
        </mxCell>
        <mxCell id="lBh6uZdyUOQ1M6r2K1As-64" value="&lt;font style=&quot;font-size: 22px;&quot;&gt;Data Flow Diagram&lt;/font&gt;" style="rounded=0;whiteSpace=wrap;html=1;fontSize=20;strokeColor=none;fontStyle=1;glass=1;" vertex="1" parent="1">
          <mxGeometry y="20" width="250" height="30" as="geometry" />
        </mxCell>
      </root>
    </mxGraphModel>
  </diagram>
</mxfile>
